# xmcd CD database file
#
# Track frame offsets:
#	150
#	14867
#	30457
#	40987
#	65045
#	80045
#	100592
#	108217
#	137727
#	151335
#	173362
#	181950
#	198680
#	217687
#	236225
#
# Disc length: 3442 seconds
#
# Revision: 0
# Processed by: cddbd v1.5.1PL0 Copyright (c) Steve Scherf et al.
# Submitted via: CDex 1.51
#
DISCID=c80d700f
DTITLE=Los Árboles - Los Árboles
DYEAR=1997
DGENRE=Blues
TTITLE0=Pedro y su Cubo Vegetal
TTITLE1=Jonás
TTITLE2=Objeto A
TTITLE3=El Acre Sabor de tu Carne Incandescente
TTITLE4=La Esa
TTITLE5=Síntoma Inhibición de Angustia
TTITLE6=Árboles Malditos
TTITLE7=Parábola
TTITLE8=Perro Viejo
TTITLE9=El Mar
TTITLE10=Long-a-nice
TTITLE11=El Blues del Murciélago
TTITLE12=Pilar
TTITLE13=Rotación
TTITLE14=Antonio
EXTD=YEAR: 1997
EXTT0=
EXTT1=
EXTT2=
EXTT3=
EXTT4=
EXTT5=
EXTT6=
EXTT7=
EXTT8=
EXTT9=
EXTT10=
EXTT11=
EXTT12=
EXTT13=
EXTT14=
PLAYORDER=
